<svg width="32" height="32" viewBox="0 0 32 32" fill="none" xmlns="http://www.w3.org/2000/svg">
<path opacity="0.1" fill-rule="evenodd" clip-rule="evenodd" d="M0 16C0 7.16344 7.16344 0 16 0C24.8366 0 32 7.16344 32 16C32 24.8366 24.8366 32 16 32C7.16344 32 0 24.8366 0 16Z" fill="white"/>
<path d="M23.5 11.3502C22.9363 11.5947 22.3401 11.7564 21.73 11.8302C22.3736 11.4456 22.856 10.8407 23.0875 10.1277C22.4827 10.4877 21.8206 10.7414 21.13 10.8777C20.6684 10.3771 20.0537 10.0439 19.3824 9.9303C18.711 9.81671 18.0209 9.92918 17.4203 10.25C16.8198 10.5709 16.3427 11.0821 16.0639 11.7033C15.7852 12.3245 15.7205 13.0207 15.88 13.6827C14.6571 13.6208 13.4608 13.3024 12.369 12.7481C11.2772 12.1937 10.3141 11.4159 9.5425 10.4652C9.27185 10.9378 9.12964 11.473 9.13 12.0177C9.12904 12.5234 9.25316 13.0216 9.49132 13.4678C9.72947 13.914 10.0743 14.2944 10.495 14.5752C10.006 14.5619 9.52741 14.4306 9.1 14.1927V14.2302C9.10367 14.9388 9.352 15.6245 9.80299 16.1711C10.254 16.7178 10.8799 17.0919 11.575 17.2302C11.3074 17.3116 11.0297 17.3545 10.75 17.3577C10.5564 17.3554 10.3633 17.3378 10.1725 17.3052C10.3704 17.9148 10.7535 18.4475 11.2683 18.8293C11.7831 19.211 12.4042 19.4228 13.045 19.4352C11.9629 20.2866 10.6269 20.7513 9.25 20.7552C8.9993 20.756 8.7488 20.7409 8.5 20.7102C9.90582 21.6179 11.5441 22.0997 13.2175 22.0977C14.3723 22.1096 15.5179 21.8914 16.5873 21.4557C17.6568 21.02 18.6288 20.3756 19.4464 19.56C20.264 18.7445 20.911 17.7742 21.3494 16.7058C21.7879 15.6375 22.009 14.4925 22 13.3377C22 13.2102 22 13.0752 22 12.9402C22.5885 12.5013 23.0961 11.9632 23.5 11.3502Z" fill="white"/>
</svg>
