<svg width="32" height="32" viewBox="0 0 32 32" fill="none" xmlns="http://www.w3.org/2000/svg">
<path opacity="0.1" fill-rule="evenodd" clip-rule="evenodd" d="M0 16C0 7.16344 7.16344 0 16 0C24.8366 0 32 7.16344 32 16C32 24.8366 24.8366 32 16 32C7.16344 32 0 24.8366 0 16Z" fill="white"/>
<path d="M25.1666 14.0919C25.2078 12.8991 24.947 11.7152 24.4083 10.6502C24.0428 10.2132 23.5355 9.91832 22.9749 9.8169C20.6562 9.6065 18.3279 9.52027 15.9999 9.55856C13.6805 9.51853 11.3605 9.60198 9.04994 9.80856C8.59312 9.89166 8.17037 10.1059 7.83327 10.4252C7.08327 11.1169 6.99994 12.3002 6.91661 13.3002C6.7957 15.0982 6.7957 16.9023 6.91661 18.7002C6.94072 19.2631 7.02452 19.8218 7.16661 20.3669C7.26709 20.7878 7.47038 21.1772 7.75827 21.5002C8.09766 21.8364 8.53026 22.0629 8.99994 22.1502C10.7965 22.372 12.6068 22.4639 14.4166 22.4252C17.3333 22.4669 19.8916 22.4252 22.9166 22.1919C23.3978 22.1099 23.8426 21.8832 24.1916 21.5419C24.4249 21.3085 24.5992 21.0228 24.6999 20.7086C24.998 19.7941 25.1443 18.837 25.1333 17.8752C25.1666 17.4086 25.1666 14.5919 25.1666 14.0919ZM14.1166 18.3752V13.2169L19.0499 15.8086C17.6666 16.5752 15.8416 17.4419 14.1166 18.3752Z" fill="white"/>
</svg>
