<svg width="32" height="32" viewBox="0 0 32 32" fill="none" xmlns="http://www.w3.org/2000/svg">
<path opacity="0.1" fill-rule="evenodd" clip-rule="evenodd" d="M0 16C0 7.16344 7.16344 0 16 0C24.8366 0 32 7.16344 32 16C32 24.8366 24.8366 32 16 32C7.16344 32 0 24.8366 0 16Z" fill="white"/>
<g clip-path="url(#clip0_1672_8076)">
<path d="M17.375 10.5H19.25C19.4226 10.5 19.5625 10.3601 19.5625 10.1875V8.31248C19.5625 8.13992 19.4226 8 19.25 8H17.375C15.4774 8.00208 13.9396 9.53987 13.9375 11.4375V13.625H11.75C11.5774 13.625 11.4375 13.7649 11.4375 13.9375V15.8125C11.4375 15.9851 11.5774 16.125 11.75 16.125H13.9375V22.6875C13.9375 22.8601 14.0774 23 14.25 23H16.125C16.2976 23 16.4375 22.8601 16.4375 22.6875V16.125H18.6251C18.7595 16.1249 18.8788 16.0388 18.9213 15.9113L19.5463 14.0363C19.6008 13.8725 19.5123 13.6956 19.3486 13.641C19.3168 13.6304 19.2835 13.625 19.25 13.625H16.4375V11.4375C16.4375 10.9197 16.8572 10.5 17.375 10.5Z" fill="white"/>
</g>
<defs>
<clipPath id="clip0_1672_8076">
<rect width="15" height="15" fill="white" transform="translate(9 8)"/>
</clipPath>
</defs>
</svg>
