<svg width="32" height="32" viewBox="0 0 32 32" fill="none" xmlns="http://www.w3.org/2000/svg">
<path opacity="0.1" fill-rule="evenodd" clip-rule="evenodd" d="M0 16C0 7.16344 7.16344 0 16 0C24.8366 0 32 7.16344 32 16C32 24.8366 24.8366 32 16 32C7.16344 32 0 24.8366 0 16Z" fill="white"/>
<path d="M21.6 9H10.4C9.76348 9 9.15303 9.25286 8.70294 9.70294C8.25286 10.153 8 10.7635 8 11.4V19.4C8 20.0365 8.25286 20.647 8.70294 21.0971C9.15303 21.5471 9.76348 21.8 10.4 21.8H21.6C22.2365 21.8 22.847 21.5471 23.2971 21.0971C23.7471 20.647 24 20.0365 24 19.4V11.4C24 10.7635 23.7471 10.153 23.2971 9.70294C22.847 9.25286 22.2365 9 21.6 9ZM10.4 10.6H21.6C21.8122 10.6 22.0157 10.6843 22.1657 10.8343C22.3157 10.9843 22.4 11.1878 22.4 11.4L16 15.304L9.6 11.4C9.6 11.1878 9.68429 10.9843 9.83431 10.8343C9.98434 10.6843 10.1878 10.6 10.4 10.6ZM22.4 19.4C22.4 19.6122 22.3157 19.8157 22.1657 19.9657C22.0157 20.1157 21.8122 20.2 21.6 20.2H10.4C10.1878 20.2 9.98434 20.1157 9.83431 19.9657C9.68429 19.8157 9.6 19.6122 9.6 19.4V13.224L15.584 16.88C15.7056 16.9502 15.8436 16.9872 15.984 16.9872C16.1244 16.9872 16.2624 16.9502 16.384 16.88L22.4 13.224V19.4Z" fill="white"/>
</svg>
