<svg width="70" height="70" viewBox="0 0 70 70" fill="none" xmlns="http://www.w3.org/2000/svg">
<circle opacity="0.2" cx="35" cy="35" r="34.5" fill="white" stroke="#004EC2"/>
<path d="M47.5234 26.5309C46.7998 25.8069 45.9407 25.2327 44.9952 24.8409C44.0496 24.4491 43.0361 24.2474 42.0126 24.2474C40.9891 24.2474 39.9756 24.4491 39.03 24.8409C38.0844 25.2327 37.2253 25.8069 36.5018 26.5309L35.0001 28.0325L33.4984 26.5309C32.0369 25.0693 30.0546 24.2482 27.9876 24.2482C25.9206 24.2482 23.9383 25.0693 22.4768 26.5309C21.0152 27.9924 20.1941 29.9747 20.1941 32.0417C20.1941 34.1087 21.0152 36.091 22.4768 37.5525L23.9784 39.0542L35.0001 50.0759L46.0218 39.0542L47.5234 37.5525C48.2473 36.829 48.8216 35.9698 49.2134 35.0243C49.6052 34.0787 49.8068 33.0652 49.8068 32.0417C49.8068 31.0182 49.6052 30.0047 49.2134 29.0591C48.8216 28.1135 48.2473 27.2544 47.5234 26.5309V26.5309Z" stroke="#004EC2" stroke-width="2" stroke-linecap="round" stroke-linejoin="round"/>
</svg>
