<svg width="70" height="70" viewBox="0 0 70 70" fill="none" xmlns="http://www.w3.org/2000/svg">
<circle opacity="0.2" cx="35" cy="35" r="34.5" fill="white" stroke="#004EC2"/>
<path d="M48.75 45.25V42.75C48.7492 41.6421 48.3804 40.5659 47.7017 39.6904C47.023 38.8148 46.0727 38.1894 45 37.9125" stroke="#004EC2" strokeWidth="2" strokeLinecap="round" strokeLinejoin="round"/>
<path d="M41.25 45.25V42.75C41.25 41.4239 40.7232 40.1521 39.7855 39.2145C38.8479 38.2768 37.5761 37.75 36.25 37.75H26.25C24.9239 37.75 23.6521 38.2768 22.7145 39.2145C21.7768 40.1521 21.25 41.4239 21.25 42.75V45.25" stroke="#004EC2" strokeWidth="2" strokeLinecap="round" strokeLinejoin="round"/>
<path d="M40 22.9125C41.0755 23.1879 42.0288 23.8134 42.7095 24.6904C43.3903 25.5674 43.7598 26.646 43.7598 27.7562C43.7598 28.8664 43.3903 29.9451 42.7095 30.8221C42.0288 31.6991 41.0755 32.3246 40 32.6" stroke="#004EC2" strokeWidth="2" strokeLinecap="round" strokeLinejoin="round"/>
<path d="M31.25 32.75C34.0114 32.75 36.25 30.5114 36.25 27.75C36.25 24.9886 34.0114 22.75 31.25 22.75C28.4886 22.75 26.25 24.9886 26.25 27.75C26.25 30.5114 28.4886 32.75 31.25 32.75Z" stroke="#004EC2" strokeWidth="2" strokeLinecap="round" strokeLinejoin="round"/>
</svg>
